<svg width="512" height="512" viewBox="0 0 512 512" fill="none" xmlns="http://www.w3.org/2000/svg">
<rect width="512" height="512" rx="50" fill="white"/>
<path d="M252.986 491.466C266.9 491.466 278.179 484.604 278.179 476.139C278.179 467.675 266.9 460.813 252.986 460.813C239.072 460.813 227.793 467.675 227.793 476.139C227.793 484.604 239.072 491.466 252.986 491.466Z" fill="#E02100" stroke="#BC2100" stroke-width="4.2"/>
<path d="M256.5 19.533C209.567 19.5331 164.557 40.4325 131.37 77.6335C98.1836 114.835 79.5396 165.29 79.5396 217.9C79.5864 250.417 86.7633 282.422 100.439 311.098C100.613 311.5 100.793 311.905 100.986 312.315C139.373 393.657 201.744 448.029 205.303 450.093C217.72 457.294 230.497 468.765 252.571 467.947C269.682 468.004 279.096 462.766 297.318 450.218C315.539 437.669 344.217 412.622 364.873 387.991C384.95 364.049 402.357 337.578 414.434 311.916C425.665 282.419 432.895 246.777 433.461 217.9C433.461 165.29 414.817 114.835 381.63 77.6335C348.444 40.4325 303.433 19.5331 256.5 19.533Z" fill="url(#paint0_radial_6_25)" stroke="#BC2100" stroke-width="4.2"/>
<defs>
<radialGradient id="paint0_radial_6_25" cx="0" cy="0" r="1" gradientUnits="userSpaceOnUse" gradientTransform="translate(329.095 134.983) rotate(134.251) scale(64.2742 85.2316)">
<stop stop-color="#FFFFEC"/>
<stop offset="1" stop-color="#E02100"/>
</radialGradient>
</defs>
</svg>
