<svg width="203" height="269" viewBox="0 0 203 269" fill="none" xmlns="http://www.w3.org/2000/svg">
  <link  rel="stylesheet" href="../main.css" type="text/css"/>

	<path class="balon-ucu" d="M99.1632 266.476C106.95 266.476 113.262 262.632 113.262 257.89C113.262 253.148 106.95 249.304 99.1632 249.304C91.3768 249.304 85.0647 253.148 85.0647 257.89C85.0647 262.632 91.3768 266.476 99.1632 266.476Z" fill="#E02100" stroke="#BC2100" stroke-width="4.2"/>
	<path class="balon-kendisi" d="M101.13 2.09959C74.8653 2.09964 49.6767 13.8074 31.1051 34.6474C12.5334 55.4874 2.10001 83.7524 2.10001 113.225C2.12622 131.44 6.14253 149.369 13.7954 165.434C13.8929 165.659 13.9935 165.886 14.1019 166.116C35.5836 211.683 70.4875 242.143 72.4792 243.299C79.4275 247.333 86.5779 253.759 98.9308 253.301C108.506 253.332 113.775 250.398 123.972 243.369C134.169 236.339 150.217 222.308 161.776 208.509C173.012 195.097 182.753 180.268 189.512 165.892C195.797 149.368 199.842 129.402 200.159 113.225C200.159 83.7524 189.726 55.4874 171.154 34.6474C152.582 13.8074 127.394 2.09964 101.13 2.09959Z" fill="url(#paint0_radial_1_9)" stroke="#BC2100" stroke-width="4.2"/>
<defs>
<radialGradient id="paint0_radial_1_9" cx="0" cy="0" r="1" gradientUnits="userSpaceOnUse" gradientTransform="translate(141.755 66.7743) rotate(134.221) scale(35.988 47.721)">
<stop stop-color="#FFFFEC"/>
<stop offset="1" stop-color="#E02100"/>
</radialGradient>
</defs>
</svg>
