<svg width="205" height="271" viewBox="0 0 205 271" fill="none" xmlns="http://www.w3.org/2000/svg">
<path d="M100.163 267.476C107.95 267.476 114.262 263.632 114.262 258.89C114.262 254.148 107.95 250.304 100.163 250.304C92.3768 250.304 86.0647 254.148 86.0647 258.89C86.0647 263.632 92.3768 267.476 100.163 267.476Z" fill="#DCE000" stroke="#D1D607" stroke-width="4.2"/>
<path d="M102.13 3.09959C75.8653 3.09964 50.6767 14.8074 32.1051 35.6474C13.5334 56.4874 3.10001 84.7524 3.10001 114.225C3.12622 132.44 7.14253 150.369 14.7954 166.434C14.8929 166.659 14.9935 166.886 15.1019 167.116C36.5836 212.683 71.4875 243.143 73.4792 244.299C80.4275 248.333 87.5779 254.759 99.9308 254.301C109.506 254.332 114.775 251.398 124.972 244.369C135.169 237.339 151.217 223.308 162.776 209.509C174.012 196.097 183.753 181.268 190.512 166.892C196.797 150.368 200.842 130.402 201.159 114.225C201.159 84.7524 190.726 56.4874 172.154 35.6474C153.582 14.8074 128.394 3.09964 102.13 3.09959Z" fill="url(#paint0_radial_4_19)" stroke="#D1D607" stroke-width="4.2"/>
<defs>
<radialGradient id="paint0_radial_4_19" cx="0" cy="0" r="1" gradientUnits="userSpaceOnUse" gradientTransform="translate(142.755 67.7743) rotate(134.221) scale(35.988 47.721)">
<stop stop-color="#FFFFEC"/>
<stop offset="1" stop-color="#E1E61A"/>
</radialGradient>
</defs>
</svg>
