<svg width="78" height="98" viewBox="0 0 78 98" fill="none" xmlns="http://www.w3.org/2000/svg">
<path d="M63.8631 87.5896C63.8631 101.47 13.7809 101.47 13.7809 87.5896C13.7809 73.7096 24.992 62.4575 38.8219 62.4575C52.6518 62.4575 63.8631 73.7096 63.8631 87.5896Z" fill="#E89C21"/>
<path d="M38.8221 62.4575C26.461 62.4575 16.1931 71.4469 14.1511 83.2673C18.4591 94.492 59.1853 94.492 63.4931 83.2673C61.4513 71.4469 51.1832 62.4575 38.8221 62.4575Z" fill="#FFC866"/>
<path d="M13.8084 87.5897C13.8084 91.3866 17.5574 94.1434 23.0019 95.8629V68.1355C17.3917 72.7442 13.8084 79.7457 13.8084 87.5897Z" fill="#ED9572"/>
<path d="M63.8201 87.5897C63.8201 80.5094 60.9011 74.1148 56.2071 69.5471V95.3169C60.7836 93.5825 63.8201 91.0072 63.8201 87.5897Z" fill="#ED9572"/>
<path d="M14.1786 83.2673C15.2476 86.0528 18.5607 88.1463 23.0021 89.5491V68.1346C18.4465 71.8775 15.2272 77.1978 14.1786 83.2673Z" fill="#FFBF94"/>
<path d="M63.45 83.2673C62.5274 77.9261 59.9235 73.1646 56.2073 69.548V89.0017C59.8461 87.622 62.5119 85.7112 63.45 83.2673Z" fill="#FFBF94"/>
<path d="M52.0628 78.8623C52.0628 85.0103 47.0968 89.9944 40.971 89.9944H36.978C30.8522 89.9944 25.8862 85.0103 25.8862 78.8623V66.8395C25.8862 60.6915 30.8522 55.7074 36.978 55.7074H40.971C47.0968 55.7074 52.0628 60.6915 52.0628 66.8395V78.8623Z" fill="white"/>
<path d="M40.971 60.1602C44.6406 60.1602 47.6261 63.1566 47.6261 66.8395V78.8623C47.6261 82.5453 44.6406 85.5416 40.971 85.5416H36.978C33.3084 85.5416 30.3229 82.5453 30.3229 78.8623V66.8395C30.3229 63.1566 33.3084 60.1602 36.978 60.1602H40.971ZM40.971 57.9338H36.978C32.0852 57.9338 28.1046 61.9287 28.1046 66.8395V78.8623C28.1046 83.7731 32.0852 87.768 36.978 87.768H40.971C45.8638 87.768 49.8444 83.7731 49.8444 78.8623V66.8395C49.8444 61.9287 45.8636 57.9338 40.971 57.9338Z" fill="#B2AF79"/>
<path d="M39 56.0921C34.5764 56.0921 30.8307 58.9992 29.5516 63.0127C30.8307 67.0263 34.5762 69.9332 39 69.9332C43.4238 69.9332 47.1695 67.0263 48.4486 63.0127C47.1695 58.9992 43.4236 56.0921 39 56.0921Z" fill="#E5E5E5"/>
<path d="M8.1052 47.5935C12.5816 47.5935 16.2104 43.9515 16.2104 39.4588C16.2104 34.9661 12.5816 31.3241 8.1052 31.3241C3.62882 31.3241 0 34.9661 0 39.4588C0 43.9515 3.62882 47.5935 8.1052 47.5935Z" fill="#FFBF94"/>
<path d="M8.10498 44.4367C4.16696 44.4367 0.886233 41.6176 0.153732 37.8805C0.0536844 38.3913 0 38.9187 0 39.4591C0 43.9516 3.62878 47.5936 8.10498 47.5936C12.5816 47.5936 16.2102 43.9516 16.2102 39.4591C16.2102 38.9187 16.1565 38.3913 16.0564 37.8805C15.3242 41.6176 12.0432 44.4367 8.10498 44.4367Z" fill="#ED9572"/>
<path d="M69.8948 47.5935C74.3712 47.5935 78 43.9515 78 39.4588C78 34.9661 74.3712 31.3241 69.8948 31.3241C65.4184 31.3241 61.7896 34.9661 61.7896 39.4588C61.7896 43.9515 65.4184 47.5935 69.8948 47.5935Z" fill="#FFBF94"/>
<path d="M69.895 44.4367C65.9568 44.4367 62.676 41.6176 61.9435 37.8805C61.8435 38.3913 61.7898 38.9187 61.7898 39.4591C61.7898 43.9516 65.4186 47.5936 69.895 47.5936C74.3714 47.5936 78 43.9516 78 39.4591C78 38.9187 77.9463 38.3913 77.8463 37.8805C77.114 41.6176 73.8328 44.4367 69.895 44.4367Z" fill="#ED9572"/>
<path d="M67.3595 27.3177C66.7257 12.1276 54.9875 0.00690182 38.9718 0.000222521V0C38.9696 0 38.9674 0 38.9654 0C38.9634 0 38.961 0 38.9585 0V0.000222521C22.9436 0.00690182 11.2054 12.1278 10.5714 27.3177H10.5436V44.8009H10.5714C11.2047 59.9906 23.9101 67.2576 38.9585 67.2621C38.9612 67.2621 38.9632 67.2621 38.9654 67.2621C38.9676 67.2621 38.9698 67.2621 38.9718 67.2621C54.0203 67.2576 66.7255 59.9906 67.3595 44.8009H67.3867V27.3177H67.3595Z" fill="#FFBF94"/>
<path d="M20.8195 53.9071C24.5609 53.9071 27.5939 50.863 27.5939 47.108C27.5939 43.353 24.5609 40.3089 20.8195 40.3089C17.0781 40.3089 14.0451 43.353 14.0451 47.108C14.0451 50.863 17.0781 53.9071 20.8195 53.9071Z" fill="#F97A7A"/>
<path d="M57.1111 53.9071C60.8525 53.9071 63.8855 50.863 63.8855 47.108C63.8855 43.353 60.8525 40.3089 57.1111 40.3089C53.3697 40.3089 50.3367 43.353 50.3367 47.108C50.3367 50.863 53.3697 53.9071 57.1111 53.9071Z" fill="#F97A7A"/>
<path d="M28.4171 39.0946C30.555 39.0946 32.2882 37.3552 32.2882 35.2095C32.2882 33.0638 30.555 31.3244 28.4171 31.3244C26.2792 31.3244 24.5461 33.0638 24.5461 35.2095C24.5461 37.3552 26.2792 39.0946 28.4171 39.0946Z" fill="#493E2F"/>
<path d="M49.5137 39.0946C51.6516 39.0946 53.3847 37.3552 53.3847 35.2095C53.3847 33.0638 51.6516 31.3244 49.5137 31.3244C47.3758 31.3244 45.6426 33.0638 45.6426 35.2095C45.6426 37.3552 47.3758 39.0946 49.5137 39.0946Z" fill="#493E2F"/>
<path d="M38.9654 55.2621C42.7021 55.2621 45.7314 52.2218 45.7314 48.4714C45.7314 44.7211 42.7021 41.6808 38.9654 41.6808C35.2286 41.6808 32.1994 44.7211 32.1994 48.4714C32.1994 52.2218 35.2286 55.2621 38.9654 55.2621Z" fill="#19929B"/>
<path d="M38.9654 53.0356C41.477 53.0356 43.513 50.9922 43.513 48.4714C43.513 45.9507 41.477 43.9073 38.9654 43.9073C36.4538 43.9073 34.4178 45.9507 34.4178 48.4714C34.4178 50.9922 36.4538 53.0356 38.9654 53.0356Z" fill="white"/>
<path d="M38.9654 50.8092C36.8371 50.8092 35.0555 49.3398 34.5595 47.3582C34.4703 47.7154 34.4178 48.0867 34.4178 48.4715C34.4178 50.9922 36.4538 53.0357 38.9654 53.0357C41.477 53.0357 43.513 50.9922 43.513 48.4715C43.513 48.0867 43.4602 47.7154 43.3708 47.3582C42.8753 49.3398 41.0937 50.8092 38.9654 50.8092Z" fill="#E5E5E5"/>
</svg>
